<?xml version='1.0' encoding='UTF-8'?>
<svg width="49mm" height="49mm" version="1.1" viewBox="0 0 49 49" xmlns="http://www.w3.org/2000/svg"><path d="M4,4H5V5H4zM5,4H6V5H5zM6,4H7V5H6zM7,4H8V5H7zM8,4H9V5H8zM9,4H10V5H9zM10,4H11V5H10zM13,4H14V5H13zM15,4H16V5H15zM18,4H19V5H18zM19,4H20V5H19zM20,4H21V5H20zM21,4H22V5H21zM22,4H23V5H22zM26,4H27V5H26zM30,4H31V5H30zM33,4H34V5H33zM34,4H35V5H34zM36,4H37V5H36zM38,4H39V5H38zM39,4H40V5H39zM40,4H41V5H40zM41,4H42V5H41zM42,4H43V5H42zM43,4H44V5H43zM44,4H45V5H44zM4,5H5V6H4zM10,5H11V6H10zM12,5H13V6H12zM14,5H15V6H14zM18,5H19V6H18zM22,5H23V6H22zM25,5H26V6H25zM26,5H27V6H26zM30,5H31V6H30zM32,5H33V6H32zM38,5H39V6H38zM44,5H45V6H44zM4,6H5V7H4zM6,6H7V7H6zM7,6H8V7H7zM8,6H9V7H8zM10,6H11V7H10zM12,6H13V7H12zM13,6H14V7H13zM14,6H15V7H14zM18,6H19V7H18zM23,6H24V7H23zM31,6H32V7H31zM34,6H35V7H34zM38,6H39V7H38zM40,6H41V7H40zM41,6H42V7H41zM42,6H43V7H42zM44,6H45V7H44zM4,7H5V8H4zM6,7H7V8H6zM7,7H8V8H7zM8,7H9V8H8zM10,7H11V8H10zM12,7H13V8H12zM13,7H14V8H13zM19,7H20V8H19zM22,7H23V8H22zM23,7H24V8H23zM27,7H28V8H27zM30,7H31V8H30zM31,7H32V8H31zM33,7H34V8H33zM34,7H35V8H34zM36,7H37V8H36zM38,7H39V8H38zM40,7H41V8H40zM41,7H42V8H41zM42,7H43V8H42zM44,7H45V8H44zM4,8H5V9H4zM6,8H7V9H6zM7,8H8V9H7zM8,8H9V9H8zM10,8H11V9H10zM13,8H14V9H13zM15,8H16V9H15zM17,8H18V9H17zM20,8H21V9H20zM23,8H24V9H23zM24,8H25V9H24zM27,8H28V9H27zM29,8H30V9H29zM32,8H33V9H32zM34,8H35V9H34zM35,8H36V9H35zM36,8H37V9H36zM38,8H39V9H38zM40,8H41V9H40zM41,8H42V9H41zM42,8H43V9H42zM44,8H45V9H44zM4,9H5V10H4zM10,9H11V10H10zM13,9H14V10H13zM19,9H20V10H19zM20,9H21V10H20zM22,9H23V10H22zM26,9H27V10H26zM30,9H31V10H30zM32,9H33V10H32zM33,9H34V10H33zM36,9H37V10H36zM38,9H39V10H38zM44,9H45V10H44zM4,10H5V11H4zM5,10H6V11H5zM6,10H7V11H6zM7,10H8V11H7zM8,10H9V11H8zM9,10H10V11H9zM10,10H11V11H10zM12,10H13V11H12zM14,10H15V11H14zM16,10H17V11H16zM18,10H19V11H18zM20,10H21V11H20zM22,10H23V11H22zM24,10H25V11H24zM26,10H27V11H26zM28,10H29V11H28zM30,10H31V11H30zM32,10H33V11H32zM34,10H35V11H34zM36,10H37V11H36zM38,10H39V11H38zM39,10H40V11H39zM40,10H41V11H40zM41,10H42V11H41zM42,10H43V11H42zM43,10H44V11H43zM44,10H45V11H44zM12,11H13V12H12zM14,11H15V12H14zM15,11H16V12H15zM22,11H23V12H22zM26,11H27V12H26zM30,11H31V12H30zM31,11H32V12H31zM32,11H33V12H32zM35,11H36V12H35zM36,11H37V12H36zM4,12H5V13H4zM10,12H11V13H10zM12,12H13V13H12zM13,12H14V13H13zM14,12H15V13H14zM16,12H17V13H16zM17,12H18V13H17zM20,12H21V13H20zM21,12H22V13H21zM24,12H25V13H24zM28,12H29V13H28zM29,12H30V13H29zM30,12H31V13H30zM33,12H34V13H33zM35,12H36V13H35zM36,12H37V13H36zM37,12H38V13H37zM38,12H39V13H38zM41,12H42V13H41zM42,12H43V13H42zM43,12H44V13H43zM4,13H5V14H4zM6,13H7V14H6zM7,13H8V14H7zM8,13H9V14H8zM9,13H10V14H9zM11,13H12V14H11zM13,13H14V14H13zM14,13H15V14H14zM16,13H17V14H16zM17,13H18V14H17zM18,13H19V14H18zM20,13H21V14H20zM23,13H24V14H23zM26,13H27V14H26zM27,13H28V14H27zM30,13H31V14H30zM31,13H32V14H31zM35,13H36V14H35zM37,13H38V14H37zM40,13H41V14H40zM6,14H7V15H6zM8,14H9V15H8zM10,14H11V15H10zM12,14H13V15H12zM13,14H14V15H13zM20,14H21V15H20zM21,14H22V15H21zM22,14H23V15H22zM24,14H25V15H24zM29,14H30V15H29zM31,14H32V15H31zM32,14H33V15H32zM33,14H34V15H33zM34,14H35V15H34zM36,14H37V15H36zM37,14H38V15H37zM39,14H40V15H39zM43,14H44V15H43zM7,15H8V16H7zM8,15H9V16H8zM11,15H12V16H11zM12,15H13V16H12zM15,15H16V16H15zM16,15H17V16H16zM17,15H18V16H17zM18,15H19V16H18zM23,15H24V16H23zM24,15H25V16H24zM26,15H27V16H26zM27,15H28V16H27zM35,15H36V16H35zM36,15H37V16H36zM39,15H40V16H39zM41,15H42V16H41zM43,15H44V16H43zM44,15H45V16H44zM6,16H7V17H6zM10,16H11V17H10zM11,16H12V17H11zM12,16H13V17H12zM13,16H14V17H13zM14,16H15V17H14zM16,16H17V17H16zM18,16H19V17H18zM20,16H21V17H20zM22,16H23V17H22zM24,16H25V17H24zM31,16H32V17H31zM32,16H33V17H32zM36,16H37V17H36zM37,16H38V17H37zM38,16H39V17H38zM39,16H40V17H39zM44,16H45V17H44zM4,17H5V18H4zM5,17H6V18H5zM8,17H9V18H8zM11,17H12V18H11zM12,17H13V18H12zM14,17H15V18H14zM15,17H16V18H15zM16,17H17V18H16zM22,17H23V18H22zM24,17H25V18H24zM28,17H29V18H28zM30,17H31V18H30zM31,17H32V18H31zM32,17H33V18H32zM33,17H34V18H33zM34,17H35V18H34zM35,17H36V18H35zM36,17H37V18H36zM37,17H38V18H37zM38,17H39V18H38zM40,17H41V18H40zM41,17H42V18H41zM43,17H44V18H43zM44,17H45V18H44zM4,18H5V19H4zM7,18H8V19H7zM10,18H11V19H10zM12,18H13V19H12zM13,18H14V19H13zM15,18H16V19H15zM16,18H17V19H16zM17,18H18V19H17zM18,18H19V19H18zM20,18H21V19H20zM23,18H24V19H23zM25,18H26V19H25zM26,18H27V19H26zM30,18H31V19H30zM31,18H32V19H31zM32,18H33V19H32zM36,18H37V19H36zM37,18H38V19H37zM39,18H40V19H39zM41,18H42V19H41zM5,19H6V20H5zM7,19H8V20H7zM8,19H9V20H8zM11,19H12V20H11zM15,19H16V20H15zM19,19H20V20H19zM23,19H24V20H23zM26,19H27V20H26zM28,19H29V20H28zM35,19H36V20H35zM36,19H37V20H36zM37,19H38V20H37zM40,19H41V20H40zM41,19H42V20H41zM42,19H43V20H42zM43,19H44V20H43zM44,19H45V20H44zM5,20H6V21H5zM8,20H9V21H8zM10,20H11V21H10zM13,20H14V21H13zM14,20H15V21H14zM17,20H18V21H17zM19,20H20V21H19zM20,20H21V21H20zM21,20H22V21H21zM23,20H24V21H23zM24,20H25V21H24zM28,20H29V21H28zM29,20H30V21H29zM30,20H31V21H30zM33,20H34V21H33zM36,20H37V21H36zM37,20H38V21H37zM39,20H40V21H39zM42,20H43V21H42zM43,20H44V21H43zM44,20H45V21H44zM5,21H6V22H5zM6,21H7V22H6zM7,21H8V22H7zM9,21H10V22H9zM11,21H12V22H11zM12,21H13V22H12zM13,21H14V22H13zM20,21H21V22H20zM21,21H22V22H21zM22,21H23V22H22zM23,21H24V22H23zM24,21H25V22H24zM27,21H28V22H27zM29,21H30V22H29zM30,21H31V22H30zM31,21H32V22H31zM32,21H33V22H32zM33,21H34V22H33zM35,21H36V22H35zM37,21H38V22H37zM38,21H39V22H38zM39,21H40V22H39zM40,21H41V22H40zM42,21H43V22H42zM43,21H44V22H43zM44,21H45V22H44zM5,22H6V23H5zM8,22H9V23H8zM9,22H10V23H9zM10,22H11V23H10zM13,22H14V23H13zM15,22H16V23H15zM17,22H18V23H17zM19,22H20V23H19zM20,22H21V23H20zM23,22H24V23H23zM25,22H26V23H25zM26,22H27V23H26zM27,22H28V23H27zM31,22H32V23H31zM32,22H33V23H32zM35,22H36V23H35zM36,22H37V23H36zM39,22H40V23H39zM40,22H41V23H40zM41,22H42V23H41zM44,22H45V23H44zM4,23H5V24H4zM8,23H9V24H8zM11,23H12V24H11zM12,23H13V24H12zM13,23H14V24H13zM14,23H15V24H14zM15,23H16V24H15zM16,23H17V24H16zM18,23H19V24H18zM20,23H21V24H20zM21,23H22V24H21zM22,23H23V24H22zM26,23H27V24H26zM28,23H29V24H28zM29,23H30V24H29zM31,23H32V24H31zM34,23H35V24H34zM37,23H38V24H37zM38,23H39V24H38zM40,23H41V24H40zM41,23H42V24H41zM4,24H5V25H4zM5,24H6V25H5zM6,24H7V25H6zM10,24H11V25H10zM12,24H13V25H12zM13,24H14V25H13zM14,24H15V25H14zM16,24H17V25H16zM18,24H19V25H18zM23,24H24V25H23zM24,24H25V25H24zM25,24H26V25H25zM28,24H29V25H28zM30,24H31V25H30zM31,24H32V25H31zM33,24H34V25H33zM39,24H40V25H39zM42,24H43V25H42zM5,25H6V26H5zM6,25H7V26H6zM8,25H9V26H8zM11,25H12V26H11zM12,25H13V26H12zM14,25H15V26H14zM15,25H16V26H15zM16,25H17V26H16zM18,25H19V26H18zM19,25H20V26H19zM20,25H21V26H20zM22,25H23V26H22zM23,25H24V26H23zM25,25H26V26H25zM27,25H28V26H27zM30,25H31V26H30zM31,25H32V26H31zM34,25H35V26H34zM35,25H36V26H35zM37,25H38V26H37zM40,25H41V26H40zM41,25H42V26H41zM6,26H7V27H6zM7,26H8V27H7zM9,26H10V27H9zM10,26H11V27H10zM13,26H14V27H13zM14,26H15V27H14zM15,26H16V27H15zM21,26H22V27H21zM22,26H23V27H22zM24,26H25V27H24zM26,26H27V27H26zM28,26H29V27H28zM30,26H31V27H30zM31,26H32V27H31zM32,26H33V27H32zM33,26H34V27H33zM40,26H41V27H40zM41,26H42V27H41zM5,27H6V28H5zM6,27H7V28H6zM9,27H10V28H9zM13,27H14V28H13zM19,27H20V28H19zM22,27H23V28H22zM23,27H24V28H23zM24,27H25V28H24zM26,27H27V28H26zM31,27H32V28H31zM35,27H36V28H35zM37,27H38V28H37zM38,27H39V28H38zM44,27H45V28H44zM4,28H5V29H4zM7,28H8V29H7zM8,28H9V29H8zM9,28H10V29H9zM10,28H11V29H10zM12,28H13V29H12zM13,28H14V29H13zM14,28H15V29H14zM16,28H17V29H16zM19,28H20V29H19zM20,28H21V29H20zM24,28H25V29H24zM27,28H28V29H27zM28,28H29V29H28zM30,28H31V29H30zM31,28H32V29H31zM32,28H33V29H32zM35,28H36V29H35zM36,28H37V29H36zM37,28H38V29H37zM38,28H39V29H38zM39,28H40V29H39zM5,29H6V30H5zM8,29H9V30H8zM12,29H13V30H12zM14,29H15V30H14zM16,29H17V30H16zM17,29H18V30H17zM19,29H20V30H19zM21,29H22V30H21zM22,29H23V30H22zM23,29H24V30H23zM25,29H26V30H25zM27,29H28V30H27zM31,29H32V30H31zM32,29H33V30H32zM35,29H36V30H35zM37,29H38V30H37zM38,29H39V30H38zM40,29H41V30H40zM41,29H42V30H41zM43,29H44V30H43zM44,29H45V30H44zM4,30H5V31H4zM6,30H7V31H6zM10,30H11V31H10zM12,30H13V31H12zM17,30H18V31H17zM19,30H20V31H19zM20,30H21V31H20zM21,30H22V31H21zM29,30H30V31H29zM31,30H32V31H31zM36,30H37V31H36zM37,30H38V31H37zM43,30H44V31H43zM8,31H9V32H8zM9,31H10V32H9zM11,31H12V32H11zM13,31H14V32H13zM15,31H16V32H15zM17,31H18V32H17zM23,31H24V32H23zM27,31H28V32H27zM28,31H29V32H28zM31,31H32V32H31zM35,31H36V32H35zM38,31H39V32H38zM39,31H40V32H39zM41,31H42V32H41zM42,31H43V32H42zM43,31H44V32H43zM44,31H45V32H44zM4,32H5V33H4zM5,32H6V33H5zM6,32H7V33H6zM7,32H8V33H7zM8,32H9V33H8zM9,32H10V33H9zM10,32H11V33H10zM11,32H12V33H11zM13,32H14V33H13zM15,32H16V33H15zM17,32H18V33H17zM18,32H19V33H18zM19,32H20V33H19zM21,32H22V33H21zM23,32H24V33H23zM24,32H25V33H24zM26,32H27V33H26zM28,32H29V33H28zM29,32H30V33H29zM33,32H34V33H33zM35,32H36V33H35zM36,32H37V33H36zM39,32H40V33H39zM41,32H42V33H41zM42,32H43V33H42zM44,32H45V33H44zM4,33H5V34H4zM5,33H6V34H5zM8,33H9V34H8zM16,33H17V34H16zM17,33H18V34H17zM18,33H19V34H18zM20,33H21V34H20zM21,33H22V34H21zM25,33H26V34H25zM26,33H27V34H26zM31,33H32V34H31zM32,33H33V34H32zM35,33H36V34H35zM37,33H38V34H37zM38,33H39V34H38zM39,33H40V34H39zM40,33H41V34H40zM43,33H44V34H43zM44,33H45V34H44zM4,34H5V35H4zM5,34H6V35H5zM6,34H7V35H6zM9,34H10V35H9zM10,34H11V35H10zM14,34H15V35H14zM16,34H17V35H16zM17,34H18V35H17zM19,34H20V35H19zM20,34H21V35H20zM23,34H24V35H23zM25,34H26V35H25zM28,34H29V35H28zM30,34H31V35H30zM31,34H32V35H31zM32,34H33V35H32zM34,34H35V35H34zM35,34H36V35H35zM36,34H37V35H36zM37,34H38V35H37zM39,34H40V35H39zM40,34H41V35H40zM44,34H45V35H44zM4,35H5V36H4zM6,35H7V36H6zM7,35H8V36H7zM9,35H10V36H9zM14,35H15V36H14zM15,35H16V36H15zM18,35H19V36H18zM20,35H21V36H20zM22,35H23V36H22zM26,35H27V36H26zM27,35H28V36H27zM30,35H31V36H30zM32,35H33V36H32zM38,35H39V36H38zM39,35H40V36H39zM40,35H41V36H40zM41,35H42V36H41zM44,35H45V36H44zM4,36H5V37H4zM9,36H10V37H9zM10,36H11V37H10zM12,36H13V37H12zM13,36H14V37H13zM14,36H15V37H14zM16,36H17V37H16zM19,36H20V37H19zM21,36H22V37H21zM22,36H23V37H22zM24,36H25V37H24zM26,36H27V37H26zM27,36H28V37H27zM28,36H29V37H28zM29,36H30V37H29zM31,36H32V37H31zM32,36H33V37H32zM33,36H34V37H33zM35,36H36V37H35zM36,36H37V37H36zM37,36H38V37H37zM38,36H39V37H38zM39,36H40V37H39zM40,36H41V37H40zM41,36H42V37H41zM42,36H43V37H42zM43,36H44V37H43zM12,37H13V38H12zM18,37H19V38H18zM19,37H20V38H19zM20,37H21V38H20zM22,37H23V38H22zM23,37H24V38H23zM25,37H26V38H25zM27,37H28V38H27zM30,37H31V38H30zM31,37H32V38H31zM33,37H34V38H33zM34,37H35V38H34zM35,37H36V38H35zM36,37H37V38H36zM40,37H41V38H40zM41,37H42V38H41zM42,37H43V38H42zM4,38H5V39H4zM5,38H6V39H5zM6,38H7V39H6zM7,38H8V39H7zM8,38H9V39H8zM9,38H10V39H9zM10,38H11V39H10zM15,38H16V39H15zM17,38H18V39H17zM18,38H19V39H18zM19,38H20V39H19zM20,38H21V39H20zM22,38H23V39H22zM26,38H27V39H26zM31,38H32V39H31zM32,38H33V39H32zM34,38H35V39H34zM35,38H36V39H35zM36,38H37V39H36zM38,38H39V39H38zM40,38H41V39H40zM41,38H42V39H41zM4,39H5V40H4zM10,39H11V40H10zM16,39H17V40H16zM20,39H21V40H20zM23,39H24V40H23zM25,39H26V40H25zM27,39H28V40H27zM30,39H31V40H30zM32,39H33V40H32zM34,39H35V40H34zM36,39H37V40H36zM40,39H41V40H40zM41,39H42V40H41zM43,39H44V40H43zM44,39H45V40H44zM4,40H5V41H4zM6,40H7V41H6zM7,40H8V41H7zM8,40H9V41H8zM10,40H11V41H10zM13,40H14V41H13zM17,40H18V41H17zM18,40H19V41H18zM21,40H22V41H21zM22,40H23V41H22zM23,40H24V41H23zM24,40H25V41H24zM25,40H26V41H25zM28,40H29V41H28zM29,40H30V41H29zM30,40H31V41H30zM31,40H32V41H31zM35,40H36V41H35zM36,40H37V41H36zM37,40H38V41H37zM38,40H39V41H38zM39,40H40V41H39zM40,40H41V41H40zM41,40H42V41H41zM4,41H5V42H4zM6,41H7V42H6zM7,41H8V42H7zM8,41H9V42H8zM10,41H11V42H10zM13,41H14V42H13zM14,41H15V42H14zM15,41H16V42H15zM19,41H20V42H19zM21,41H22V42H21zM23,41H24V42H23zM24,41H25V42H24zM27,41H28V42H27zM29,41H30V42H29zM30,41H31V42H30zM31,41H32V42H31zM32,41H33V42H32zM39,41H40V42H39zM41,41H42V42H41zM43,41H44V42H43zM4,42H5V43H4zM6,42H7V43H6zM7,42H8V43H7zM8,42H9V43H8zM10,42H11V43H10zM14,42H15V43H14zM15,42H16V43H15zM17,42H18V43H17zM20,42H21V43H20zM21,42H22V43H21zM22,42H23V43H22zM25,42H26V43H25zM26,42H27V43H26zM29,42H30V43H29zM30,42H31V43H30zM31,42H32V43H31zM32,42H33V43H32zM33,42H34V43H33zM37,42H38V43H37zM38,42H39V43H38zM39,42H40V43H39zM40,42H41V43H40zM41,42H42V43H41zM42,42H43V43H42zM4,43H5V44H4zM10,43H11V44H10zM13,43H14V44H13zM14,43H15V44H14zM16,43H17V44H16zM17,43H18V44H17zM18,43H19V44H18zM21,43H22V44H21zM27,43H28V44H27zM30,43H31V44H30zM31,43H32V44H31zM32,43H33V44H32zM35,43H36V44H35zM38,43H39V44H38zM40,43H41V44H40zM42,43H43V44H42zM44,43H45V44H44zM4,44H5V45H4zM5,44H6V45H5zM6,44H7V45H6zM7,44H8V45H7zM8,44H9V45H8zM9,44H10V45H9zM10,44H11V45H10zM12,44H13V45H12zM13,44H14V45H13zM15,44H16V45H15zM20,44H21V45H20zM21,44H22V45H21zM22,44H23V45H22zM26,44H27V45H26zM27,44H28V45H27zM28,44H29V45H28zM29,44H30V45H29zM30,44H31V45H30zM31,44H32V45H31zM33,44H34V45H33zM34,44H35V45H34zM35,44H36V45H35zM37,44H38V45H37zM39,44H40V45H39zM40,44H41V45H40zM41,44H42V45H41zM42,44H43V45H42z" id="qr-path" fill="#000000" fill-opacity="1" fill-rule="nonzero" stroke="none" /></svg>