<?xml version='1.0' encoding='UTF-8'?>
<svg width="41mm" height="41mm" version="1.1" viewBox="0 0 41 41" xmlns="http://www.w3.org/2000/svg"><path d="M4,4H5V5H4zM5,4H6V5H5zM6,4H7V5H6zM7,4H8V5H7zM8,4H9V5H8zM9,4H10V5H9zM10,4H11V5H10zM17,4H18V5H17zM19,4H20V5H19zM22,4H23V5H22zM23,4H24V5H23zM27,4H28V5H27zM30,4H31V5H30zM31,4H32V5H31zM32,4H33V5H32zM33,4H34V5H33zM34,4H35V5H34zM35,4H36V5H35zM36,4H37V5H36zM4,5H5V6H4zM10,5H11V6H10zM12,5H13V6H12zM13,5H14V6H13zM14,5H15V6H14zM17,5H18V6H17zM19,5H20V6H19zM20,5H21V6H20zM21,5H22V6H21zM22,5H23V6H22zM23,5H24V6H23zM24,5H25V6H24zM25,5H26V6H25zM27,5H28V6H27zM28,5H29V6H28zM30,5H31V6H30zM36,5H37V6H36zM4,6H5V7H4zM6,6H7V7H6zM7,6H8V7H7zM8,6H9V7H8zM10,6H11V7H10zM13,6H14V7H13zM14,6H15V7H14zM18,6H19V7H18zM19,6H20V7H19zM20,6H21V7H20zM22,6H23V7H22zM23,6H24V7H23zM25,6H26V7H25zM27,6H28V7H27zM30,6H31V7H30zM32,6H33V7H32zM33,6H34V7H33zM34,6H35V7H34zM36,6H37V7H36zM4,7H5V8H4zM6,7H7V8H6zM7,7H8V8H7zM8,7H9V8H8zM10,7H11V8H10zM14,7H15V8H14zM16,7H17V8H16zM17,7H18V8H17zM18,7H19V8H18zM19,7H20V8H19zM22,7H23V8H22zM25,7H26V8H25zM27,7H28V8H27zM30,7H31V8H30zM32,7H33V8H32zM33,7H34V8H33zM34,7H35V8H34zM36,7H37V8H36zM4,8H5V9H4zM6,8H7V9H6zM7,8H8V9H7zM8,8H9V9H8zM10,8H11V9H10zM12,8H13V9H12zM13,8H14V9H13zM15,8H16V9H15zM16,8H17V9H16zM18,8H19V9H18zM21,8H22V9H21zM26,8H27V9H26zM27,8H28V9H27zM28,8H29V9H28zM30,8H31V9H30zM32,8H33V9H32zM33,8H34V9H33zM34,8H35V9H34zM36,8H37V9H36zM4,9H5V10H4zM10,9H11V10H10zM15,9H16V10H15zM16,9H17V10H16zM17,9H18V10H17zM18,9H19V10H18zM21,9H22V10H21zM22,9H23V10H22zM24,9H25V10H24zM27,9H28V10H27zM30,9H31V10H30zM36,9H37V10H36zM4,10H5V11H4zM5,10H6V11H5zM6,10H7V11H6zM7,10H8V11H7zM8,10H9V11H8zM9,10H10V11H9zM10,10H11V11H10zM12,10H13V11H12zM14,10H15V11H14zM16,10H17V11H16zM18,10H19V11H18zM20,10H21V11H20zM22,10H23V11H22zM24,10H25V11H24zM26,10H27V11H26zM28,10H29V11H28zM30,10H31V11H30zM31,10H32V11H31zM32,10H33V11H32zM33,10H34V11H33zM34,10H35V11H34zM35,10H36V11H35zM36,10H37V11H36zM13,11H14V12H13zM17,11H18V12H17zM21,11H22V12H21zM22,11H23V12H22zM23,11H24V12H23zM25,11H26V12H25zM26,11H27V12H26zM27,11H28V12H27zM4,12H5V13H4zM6,12H7V13H6zM8,12H9V13H8zM10,12H11V13H10zM16,12H17V13H16zM17,12H18V13H17zM18,12H19V13H18zM20,12H21V13H20zM21,12H22V13H21zM22,12H23V13H22zM24,12H25V13H24zM25,12H26V13H25zM28,12H29V13H28zM32,12H33V13H32zM35,12H36V13H35zM5,13H6V14H5zM6,13H7V14H6zM7,13H8V14H7zM11,13H12V14H11zM13,13H14V14H13zM20,13H21V14H20zM24,13H25V14H24zM28,13H29V14H28zM29,13H30V14H29zM30,13H31V14H30zM31,13H32V14H31zM35,13H36V14H35zM36,13H37V14H36zM6,14H7V15H6zM7,14H8V15H7zM8,14H9V15H8zM9,14H10V15H9zM10,14H11V15H10zM14,14H15V15H14zM21,14H22V15H21zM22,14H23V15H22zM25,14H26V15H25zM26,14H27V15H26zM28,14H29V15H28zM30,14H31V15H30zM31,14H32V15H31zM34,14H35V15H34zM36,14H37V15H36zM4,15H5V16H4zM6,15H7V16H6zM12,15H13V16H12zM15,15H16V16H15zM17,15H18V16H17zM19,15H20V16H19zM20,15H21V16H20zM28,15H29V16H28zM29,15H30V16H29zM30,15H31V16H30zM32,15H33V16H32zM35,15H36V16H35zM5,16H6V17H5zM6,16H7V17H6zM7,16H8V17H7zM8,16H9V17H8zM9,16H10V17H9zM10,16H11V17H10zM12,16H13V17H12zM13,16H14V17H13zM15,16H16V17H15zM16,16H17V17H16zM18,16H19V17H18zM20,16H21V17H20zM21,16H22V17H21zM22,16H23V17H22zM24,16H25V17H24zM25,16H26V17H25zM26,16H27V17H26zM27,16H28V17H27zM30,16H31V17H30zM32,16H33V17H32zM33,16H34V17H33zM36,16H37V17H36zM8,17H9V18H8zM11,17H12V18H11zM12,17H13V18H12zM15,17H16V18H15zM16,17H17V18H16zM20,17H21V18H20zM29,17H30V18H29zM30,17H31V18H30zM31,17H32V18H31zM33,17H34V18H33zM36,17H37V18H36zM4,18H5V19H4zM6,18H7V19H6zM8,18H9V19H8zM9,18H10V19H9zM10,18H11V19H10zM12,18H13V19H12zM13,18H14V19H13zM14,18H15V19H14zM15,18H16V19H15zM17,18H18V19H17zM21,18H22V19H21zM24,18H25V19H24zM25,18H26V19H25zM26,18H27V19H26zM28,18H29V19H28zM29,18H30V19H29zM31,18H32V19H31zM32,18H33V19H32zM35,18H36V19H35zM36,18H37V19H36zM5,19H6V20H5zM16,19H17V20H16zM19,19H20V20H19zM21,19H22V20H21zM22,19H23V20H22zM24,19H25V20H24zM25,19H26V20H25zM26,19H27V20H26zM27,19H28V20H27zM30,19H31V20H30zM31,19H32V20H31zM32,19H33V20H32zM35,19H36V20H35zM5,20H6V21H5zM9,20H10V21H9zM10,20H11V21H10zM14,20H15V21H14zM15,20H16V21H15zM16,20H17V21H16zM19,20H20V21H19zM21,20H22V21H21zM24,20H25V21H24zM25,20H26V21H25zM27,20H28V21H27zM28,20H29V21H28zM29,20H30V21H29zM30,20H31V21H30zM33,20H34V21H33zM4,21H5V22H4zM6,21H7V22H6zM8,21H9V22H8zM9,21H10V22H9zM12,21H13V22H12zM15,21H16V22H15zM18,21H19V22H18zM20,21H21V22H20zM21,21H22V22H21zM22,21H23V22H22zM24,21H25V22H24zM25,21H26V22H25zM30,21H31V22H30zM31,21H32V22H31zM5,22H6V23H5zM9,22H10V23H9zM10,22H11V23H10zM11,22H12V23H11zM14,22H15V23H14zM18,22H19V23H18zM20,22H21V23H20zM24,22H25V23H24zM25,22H26V23H25zM26,22H27V23H26zM34,22H35V23H34zM4,23H5V24H4zM6,23H7V24H6zM7,23H8V24H7zM9,23H10V24H9zM14,23H15V24H14zM15,23H16V24H15zM17,23H18V24H17zM18,23H19V24H18zM19,23H20V24H19zM20,23H21V24H20zM21,23H22V24H21zM24,23H25V24H24zM26,23H27V24H26zM28,23H29V24H28zM29,23H30V24H29zM31,23H32V24H31zM32,23H33V24H32zM36,23H37V24H36zM8,24H9V25H8zM10,24H11V25H10zM12,24H13V25H12zM13,24H14V25H13zM15,24H16V25H15zM16,24H17V25H16zM18,24H19V25H18zM20,24H21V25H20zM21,24H22V25H21zM22,24H23V25H22zM23,24H24V25H23zM24,24H25V25H24zM26,24H27V25H26zM28,24H29V25H28zM30,24H31V25H30zM31,24H32V25H31zM33,24H34V25H33zM35,24H36V25H35zM36,24H37V25H36zM5,25H6V26H5zM7,25H8V26H7zM11,25H12V26H11zM13,25H14V26H13zM14,25H15V26H14zM15,25H16V26H15zM16,25H17V26H16zM21,25H22V26H21zM26,25H27V26H26zM28,25H29V26H28zM29,25H30V26H29zM32,25H33V26H32zM34,25H35V26H34zM35,25H36V26H35zM36,25H37V26H36zM4,26H5V27H4zM6,26H7V27H6zM8,26H9V27H8zM10,26H11V27H10zM11,26H12V27H11zM12,26H13V27H12zM13,26H14V27H13zM15,26H16V27H15zM16,26H17V27H16zM17,26H18V27H17zM19,26H20V27H19zM22,26H23V27H22zM24,26H25V27H24zM26,26H27V27H26zM29,26H30V27H29zM30,26H31V27H30zM35,26H36V27H35zM36,26H37V27H36zM5,27H6V28H5zM6,27H7V28H6zM7,27H8V28H7zM12,27H13V28H12zM13,27H14V28H13zM14,27H15V28H14zM16,27H17V28H16zM18,27H19V28H18zM20,27H21V28H20zM21,27H22V28H21zM23,27H24V28H23zM25,27H26V28H25zM26,27H27V28H26zM27,27H28V28H27zM30,27H31V28H30zM31,27H32V28H31zM32,27H33V28H32zM35,27H36V28H35zM36,27H37V28H36zM4,28H5V29H4zM6,28H7V29H6zM9,28H10V29H9zM10,28H11V29H10zM11,28H12V29H11zM16,28H17V29H16zM17,28H18V29H17zM18,28H19V29H18zM19,28H20V29H19zM20,28H21V29H20zM21,28H22V29H21zM24,28H25V29H24zM25,28H26V29H25zM28,28H29V29H28zM29,28H30V29H29zM30,28H31V29H30zM31,28H32V29H31zM32,28H33V29H32zM34,28H35V29H34zM35,28H36V29H35zM12,29H13V30H12zM14,29H15V30H14zM20,29H21V30H20zM21,29H22V30H21zM22,29H23V30H22zM28,29H29V30H28zM32,29H33V30H32zM33,29H34V30H33zM35,29H36V30H35zM36,29H37V30H36zM4,30H5V31H4zM5,30H6V31H5zM6,30H7V31H6zM7,30H8V31H7zM8,30H9V31H8zM9,30H10V31H9zM10,30H11V31H10zM13,30H14V31H13zM15,30H16V31H15zM17,30H18V31H17zM18,30H19V31H18zM21,30H22V31H21zM22,30H23V31H22zM24,30H25V31H24zM27,30H28V31H27zM28,30H29V31H28zM30,30H31V31H30zM32,30H33V31H32zM34,30H35V31H34zM35,30H36V31H35zM36,30H37V31H36zM4,31H5V32H4zM10,31H11V32H10zM15,31H16V32H15zM17,31H18V32H17zM18,31H19V32H18zM20,31H21V32H20zM22,31H23V32H22zM23,31H24V32H23zM24,31H25V32H24zM26,31H27V32H26zM28,31H29V32H28zM32,31H33V32H32zM4,32H5V33H4zM6,32H7V33H6zM7,32H8V33H7zM8,32H9V33H8zM10,32H11V33H10zM12,32H13V33H12zM14,32H15V33H14zM18,32H19V33H18zM19,32H20V33H19zM23,32H24V33H23zM24,32H25V33H24zM26,32H27V33H26zM28,32H29V33H28zM29,32H30V33H29zM30,32H31V33H30zM31,32H32V33H31zM32,32H33V33H32zM33,32H34V33H33zM36,32H37V33H36zM4,33H5V34H4zM6,33H7V34H6zM7,33H8V34H7zM8,33H9V34H8zM10,33H11V34H10zM13,33H14V34H13zM17,33H18V34H17zM21,33H22V34H21zM22,33H23V34H22zM23,33H24V34H23zM28,33H29V34H28zM32,33H33V34H32zM33,33H34V34H33zM34,33H35V34H34zM4,34H5V35H4zM6,34H7V35H6zM7,34H8V35H7zM8,34H9V35H8zM10,34H11V35H10zM12,34H13V35H12zM14,34H15V35H14zM15,34H16V35H15zM16,34H17V35H16zM18,34H19V35H18zM21,34H22V35H21zM22,34H23V35H22zM24,34H25V35H24zM27,34H28V35H27zM28,34H29V35H28zM29,34H30V35H29zM32,34H33V35H32zM34,34H35V35H34zM36,34H37V35H36zM4,35H5V36H4zM10,35H11V36H10zM13,35H14V36H13zM14,35H15V36H14zM15,35H16V36H15zM16,35H17V36H16zM20,35H21V36H20zM21,35H22V36H21zM23,35H24V36H23zM25,35H26V36H25zM27,35H28V36H27zM30,35H31V36H30zM32,35H33V36H32zM34,35H35V36H34zM35,35H36V36H35zM4,36H5V37H4zM5,36H6V37H5zM6,36H7V37H6zM7,36H8V37H7zM8,36H9V37H8zM9,36H10V37H9zM10,36H11V37H10zM12,36H13V37H12zM15,36H16V37H15zM18,36H19V37H18zM20,36H21V37H20zM21,36H22V37H21zM24,36H25V37H24zM25,36H26V37H25zM27,36H28V37H27zM28,36H29V37H28zM30,36H31V37H30zM32,36H33V37H32zM34,36H35V37H34zM35,36H36V37H35zM36,36H37V37H36z" id="qr-path" fill="#000000" fill-opacity="1" fill-rule="nonzero" stroke="none" /></svg>