<?xml version='1.0' encoding='UTF-8'?>
<svg width="53mm" height="53mm" version="1.1" viewBox="0 0 53 53" xmlns="http://www.w3.org/2000/svg"><path d="M4,4H5V5H4zM5,4H6V5H5zM6,4H7V5H6zM7,4H8V5H7zM8,4H9V5H8zM9,4H10V5H9zM10,4H11V5H10zM15,4H16V5H15zM16,4H17V5H16zM17,4H18V5H17zM18,4H19V5H18zM20,4H21V5H20zM23,4H24V5H23zM25,4H26V5H25zM32,4H33V5H32zM33,4H34V5H33zM34,4H35V5H34zM35,4H36V5H35zM36,4H37V5H36zM37,4H38V5H37zM40,4H41V5H40zM42,4H43V5H42zM43,4H44V5H43zM44,4H45V5H44zM45,4H46V5H45zM46,4H47V5H46zM47,4H48V5H47zM48,4H49V5H48zM4,5H5V6H4zM10,5H11V6H10zM13,5H14V6H13zM14,5H15V6H14zM15,5H16V6H15zM16,5H17V6H16zM18,5H19V6H18zM19,5H20V6H19zM20,5H21V6H20zM22,5H23V6H22zM23,5H24V6H23zM24,5H25V6H24zM27,5H28V6H27zM28,5H29V6H28zM29,5H30V6H29zM30,5H31V6H30zM32,5H33V6H32zM35,5H36V6H35zM36,5H37V6H36zM39,5H40V6H39zM42,5H43V6H42zM48,5H49V6H48zM4,6H5V7H4zM6,6H7V7H6zM7,6H8V7H7zM8,6H9V7H8zM10,6H11V7H10zM12,6H13V7H12zM16,6H17V7H16zM20,6H21V7H20zM22,6H23V7H22zM29,6H30V7H29zM30,6H31V7H30zM31,6H32V7H31zM32,6H33V7H32zM33,6H34V7H33zM34,6H35V7H34zM35,6H36V7H35zM36,6H37V7H36zM37,6H38V7H37zM39,6H40V7H39zM42,6H43V7H42zM44,6H45V7H44zM45,6H46V7H45zM46,6H47V7H46zM48,6H49V7H48zM4,7H5V8H4zM6,7H7V8H6zM7,7H8V8H7zM8,7H9V8H8zM10,7H11V8H10zM12,7H13V8H12zM13,7H14V8H13zM14,7H15V8H14zM17,7H18V8H17zM19,7H20V8H19zM21,7H22V8H21zM22,7H23V8H22zM24,7H25V8H24zM26,7H27V8H26zM27,7H28V8H27zM30,7H31V8H30zM33,7H34V8H33zM34,7H35V8H34zM35,7H36V8H35zM39,7H40V8H39zM40,7H41V8H40zM42,7H43V8H42zM44,7H45V8H44zM45,7H46V8H45zM46,7H47V8H46zM48,7H49V8H48zM4,8H5V9H4zM6,8H7V9H6zM7,8H8V9H7zM8,8H9V9H8zM10,8H11V9H10zM12,8H13V9H12zM14,8H15V9H14zM15,8H16V9H15zM16,8H17V9H16zM19,8H20V9H19zM23,8H24V9H23zM24,8H25V9H24zM25,8H26V9H25zM26,8H27V9H26zM27,8H28V9H27zM28,8H29V9H28zM29,8H30V9H29zM32,8H33V9H32zM33,8H34V9H33zM34,8H35V9H34zM35,8H36V9H35zM38,8H39V9H38zM39,8H40V9H39zM40,8H41V9H40zM42,8H43V9H42zM44,8H45V9H44zM45,8H46V9H45zM46,8H47V9H46zM48,8H49V9H48zM4,9H5V10H4zM10,9H11V10H10zM12,9H13V10H12zM13,9H14V10H13zM14,9H15V10H14zM17,9H18V10H17zM18,9H19V10H18zM19,9H20V10H19zM22,9H23V10H22zM24,9H25V10H24zM28,9H29V10H28zM29,9H30V10H29zM30,9H31V10H30zM31,9H32V10H31zM33,9H34V10H33zM35,9H36V10H35zM37,9H38V10H37zM42,9H43V10H42zM48,9H49V10H48zM4,10H5V11H4zM5,10H6V11H5zM6,10H7V11H6zM7,10H8V11H7zM8,10H9V11H8zM9,10H10V11H9zM10,10H11V11H10zM12,10H13V11H12zM14,10H15V11H14zM16,10H17V11H16zM18,10H19V11H18zM20,10H21V11H20zM22,10H23V11H22zM24,10H25V11H24zM26,10H27V11H26zM28,10H29V11H28zM30,10H31V11H30zM32,10H33V11H32zM34,10H35V11H34zM36,10H37V11H36zM38,10H39V11H38zM40,10H41V11H40zM42,10H43V11H42zM43,10H44V11H43zM44,10H45V11H44zM45,10H46V11H45zM46,10H47V11H46zM47,10H48V11H47zM48,10H49V11H48zM12,11H13V12H12zM14,11H15V12H14zM15,11H16V12H15zM17,11H18V12H17zM20,11H21V12H20zM21,11H22V12H21zM22,11H23V12H22zM24,11H25V12H24zM28,11H29V12H28zM29,11H30V12H29zM30,11H31V12H30zM31,11H32V12H31zM32,11H33V12H32zM33,11H34V12H33zM34,11H35V12H34zM36,11H37V12H36zM39,11H40V12H39zM40,11H41V12H40zM4,12H5V13H4zM6,12H7V13H6zM7,12H8V13H7zM8,12H9V13H8zM9,12H10V13H9zM10,12H11V13H10zM14,12H15V13H14zM15,12H16V13H15zM18,12H19V13H18zM22,12H23V13H22zM24,12H25V13H24zM25,12H26V13H25zM26,12H27V13H26zM27,12H28V13H27zM28,12H29V13H28zM29,12H30V13H29zM33,12H34V13H33zM34,12H35V13H34zM35,12H36V13H35zM37,12H38V13H37zM42,12H43V13H42zM43,12H44V13H43zM44,12H45V13H44zM45,12H46V13H45zM46,12H47V13H46zM7,13H8V14H7zM19,13H20V14H19zM20,13H21V14H20zM21,13H22V14H21zM22,13H23V14H22zM23,13H24V14H23zM28,13H29V14H28zM29,13H30V14H29zM33,13H34V14H33zM34,13H35V14H34zM35,13H36V14H35zM39,13H40V14H39zM40,13H41V14H40zM44,13H45V14H44zM46,13H47V14H46zM47,13H48V14H47zM48,13H49V14H48zM4,14H5V15H4zM5,14H6V15H5zM6,14H7V15H6zM8,14H9V15H8zM10,14H11V15H10zM12,14H13V15H12zM16,14H17V15H16zM17,14H18V15H17zM19,14H20V15H19zM20,14H21V15H20zM21,14H22V15H21zM27,14H28V15H27zM30,14H31V15H30zM33,14H34V15H33zM34,14H35V15H34zM35,14H36V15H35zM36,14H37V15H36zM37,14H38V15H37zM38,14H39V15H38zM41,14H42V15H41zM42,14H43V15H42zM43,14H44V15H43zM45,14H46V15H45zM47,14H48V15H47zM4,15H5V16H4zM12,15H13V16H12zM14,15H15V16H14zM15,15H16V16H15zM19,15H20V16H19zM20,15H21V16H20zM21,15H22V16H21zM23,15H24V16H23zM24,15H25V16H24zM29,15H30V16H29zM31,15H32V16H31zM32,15H33V16H32zM33,15H34V16H33zM34,15H35V16H34zM36,15H37V16H36zM37,15H38V16H37zM39,15H40V16H39zM41,15H42V16H41zM43,15H44V16H43zM44,15H45V16H44zM45,15H46V16H45zM46,15H47V16H46zM4,16H5V17H4zM6,16H7V17H6zM7,16H8V17H7zM8,16H9V17H8zM10,16H11V17H10zM11,16H12V17H11zM12,16H13V17H12zM14,16H15V17H14zM15,16H16V17H15zM18,16H19V17H18zM19,16H20V17H19zM20,16H21V17H20zM21,16H22V17H21zM22,16H23V17H22zM24,16H25V17H24zM26,16H27V17H26zM27,16H28V17H27zM29,16H30V17H29zM31,16H32V17H31zM35,16H36V17H35zM38,16H39V17H38zM41,16H42V17H41zM48,16H49V17H48zM7,17H8V18H7zM8,17H9V18H8zM12,17H13V18H12zM13,17H14V18H13zM16,17H17V18H16zM18,17H19V18H18zM21,17H22V18H21zM23,17H24V18H23zM24,17H25V18H24zM25,17H26V18H25zM29,17H30V18H29zM31,17H32V18H31zM34,17H35V18H34zM36,17H37V18H36zM39,17H40V18H39zM40,17H41V18H40zM41,17H42V18H41zM43,17H44V18H43zM45,17H46V18H45zM46,17H47V18H46zM47,17H48V18H47zM7,18H8V19H7zM10,18H11V19H10zM11,18H12V19H11zM12,18H13V19H12zM13,18H14V19H13zM16,18H17V19H16zM17,18H18V19H17zM18,18H19V19H18zM23,18H24V19H23zM24,18H25V19H24zM27,18H28V19H27zM28,18H29V19H28zM29,18H30V19H29zM30,18H31V19H30zM31,18H32V19H31zM37,18H38V19H37zM38,18H39V19H38zM42,18H43V19H42zM46,18H47V19H46zM47,18H48V19H47zM4,19H5V20H4zM5,19H6V20H5zM6,19H7V20H6zM11,19H12V20H11zM12,19H13V20H12zM13,19H14V20H13zM14,19H15V20H14zM16,19H17V20H16zM17,19H18V20H17zM18,19H19V20H18zM20,19H21V20H20zM22,19H23V20H22zM23,19H24V20H23zM25,19H26V20H25zM27,19H28V20H27zM30,19H31V20H30zM34,19H35V20H34zM36,19H37V20H36zM39,19H40V20H39zM41,19H42V20H41zM42,19H43V20H42zM43,19H44V20H43zM44,19H45V20H44zM46,19H47V20H46zM47,19H48V20H47zM48,19H49V20H48zM4,20H5V21H4zM5,20H6V21H5zM6,20H7V21H6zM7,20H8V21H7zM8,20H9V21H8zM10,20H11V21H10zM12,20H13V21H12zM13,20H14V21H13zM15,20H16V21H15zM16,20H17V21H16zM19,20H20V21H19zM20,20H21V21H20zM21,20H22V21H21zM22,20H23V21H22zM23,20H24V21H23zM24,20H25V21H24zM27,20H28V21H27zM29,20H30V21H29zM33,20H34V21H33zM34,20H35V21H34zM35,20H36V21H35zM38,20H39V21H38zM41,20H42V21H41zM4,21H5V22H4zM5,21H6V22H5zM6,21H7V22H6zM11,21H12V22H11zM14,21H15V22H14zM15,21H16V22H15zM17,21H18V22H17zM18,21H19V22H18zM19,21H20V22H19zM23,21H24V22H23zM24,21H25V22H24zM31,21H32V22H31zM33,21H34V22H33zM34,21H35V22H34zM39,21H40V22H39zM40,21H41V22H40zM41,21H42V22H41zM45,21H46V22H45zM47,21H48V22H47zM48,21H49V22H48zM4,22H5V23H4zM5,22H6V23H5zM7,22H8V23H7zM9,22H10V23H9zM10,22H11V23H10zM12,22H13V23H12zM17,22H18V23H17zM18,22H19V23H18zM20,22H21V23H20zM21,22H22V23H21zM23,22H24V23H23zM24,22H25V23H24zM25,22H26V23H25zM27,22H28V23H27zM28,22H29V23H28zM29,22H30V23H29zM30,22H31V23H30zM35,22H36V23H35zM36,22H37V23H36zM39,22H40V23H39zM41,22H42V23H41zM42,22H43V23H42zM43,22H44V23H43zM45,22H46V23H45zM47,22H48V23H47zM4,23H5V24H4zM7,23H8V24H7zM8,23H9V24H8zM11,23H12V24H11zM13,23H14V24H13zM14,23H15V24H14zM16,23H17V24H16zM17,23H18V24H17zM18,23H19V24H18zM20,23H21V24H20zM22,23H23V24H22zM23,23H24V24H23zM28,23H29V24H28zM31,23H32V24H31zM32,23H33V24H32zM34,23H35V24H34zM36,23H37V24H36zM39,23H40V24H39zM44,23H45V24H44zM45,23H46V24H45zM46,23H47V24H46zM47,23H48V24H47zM4,24H5V25H4zM6,24H7V25H6zM8,24H9V25H8zM9,24H10V25H9zM10,24H11V25H10zM11,24H12V25H11zM12,24H13V25H12zM13,24H14V25H13zM18,24H19V25H18zM19,24H20V25H19zM21,24H22V25H21zM22,24H23V25H22zM23,24H24V25H23zM24,24H25V25H24zM25,24H26V25H25zM26,24H27V25H26zM27,24H28V25H27zM28,24H29V25H28zM33,24H34V25H33zM35,24H36V25H35zM40,24H41V25H40zM41,24H42V25H41zM42,24H43V25H42zM43,24H44V25H43zM44,24H45V25H44zM47,24H48V25H47zM4,25H5V26H4zM6,25H7V26H6zM8,25H9V26H8zM12,25H13V26H12zM13,25H14V26H13zM14,25H15V26H14zM15,25H16V26H15zM16,25H17V26H16zM18,25H19V26H18zM20,25H21V26H20zM21,25H22V26H21zM24,25H25V26H24zM28,25H29V26H28zM29,25H30V26H29zM31,25H32V26H31zM32,25H33V26H32zM33,25H34V26H33zM34,25H35V26H34zM36,25H37V26H36zM39,25H40V26H39zM40,25H41V26H40zM44,25H45V26H44zM45,25H46V26H45zM46,25H47V26H46zM47,25H48V26H47zM48,25H49V26H48zM4,26H5V27H4zM6,26H7V27H6zM8,26H9V27H8zM10,26H11V27H10zM12,26H13V27H12zM15,26H16V27H15zM16,26H17V27H16zM17,26H18V27H17zM18,26H19V27H18zM20,26H21V27H20zM21,26H22V27H21zM23,26H24V27H23zM24,26H25V27H24zM26,26H27V27H26zM28,26H29V27H28zM30,26H31V27H30zM31,26H32V27H31zM38,26H39V27H38zM39,26H40V27H39zM40,26H41V27H40zM42,26H43V27H42zM44,26H45V27H44zM46,26H47V27H46zM47,26H48V27H47zM4,27H5V28H4zM7,27H8V28H7zM8,27H9V28H8zM12,27H13V28H12zM13,27H14V28H13zM15,27H16V28H15zM17,27H18V28H17zM18,27H19V28H18zM19,27H20V28H19zM20,27H21V28H20zM23,27H24V28H23zM24,27H25V28H24zM28,27H29V28H28zM30,27H31V28H30zM31,27H32V28H31zM32,27H33V28H32zM33,27H34V28H33zM36,27H37V28H36zM38,27H39V28H38zM40,27H41V28H40zM44,27H45V28H44zM45,27H46V28H45zM46,27H47V28H46zM48,27H49V28H48zM4,28H5V29H4zM7,28H8V29H7zM8,28H9V29H8zM9,28H10V29H9zM10,28H11V29H10zM11,28H12V29H11zM12,28H13V29H12zM14,28H15V29H14zM16,28H17V29H16zM18,28H19V29H18zM19,28H20V29H19zM20,28H21V29H20zM21,28H22V29H21zM23,28H24V29H23zM24,28H25V29H24zM25,28H26V29H25zM26,28H27V29H26zM27,28H28V29H27zM28,28H29V29H28zM29,28H30V29H29zM33,28H34V29H33zM35,28H36V29H35zM38,28H39V29H38zM40,28H41V29H40zM41,28H42V29H41zM42,28H43V29H42zM43,28H44V29H43zM44,28H45V29H44zM45,28H46V29H45zM47,28H48V29H47zM48,28H49V29H48zM5,29H6V30H5zM8,29H9V30H8zM9,29H10V30H9zM11,29H12V30H11zM12,29H13V30H12zM14,29H15V30H14zM15,29H16V30H15zM19,29H20V30H19zM20,29H21V30H20zM22,29H23V30H22zM23,29H24V30H23zM24,29H25V30H24zM26,29H27V30H26zM27,29H28V30H27zM28,29H29V30H28zM29,29H30V30H29zM32,29H33V30H32zM33,29H34V30H33zM34,29H35V30H34zM36,29H37V30H36zM40,29H41V30H40zM41,29H42V30H41zM46,29H47V30H46zM48,29H49V30H48zM5,30H6V31H5zM6,30H7V31H6zM7,30H8V31H7zM10,30H11V31H10zM11,30H12V31H11zM18,30H19V31H18zM19,30H20V31H19zM20,30H21V31H20zM21,30H22V31H21zM22,30H23V31H22zM24,30H25V31H24zM30,30H31V31H30zM31,30H32V31H31zM33,30H34V31H33zM35,30H36V31H35zM38,30H39V31H38zM39,30H40V31H39zM40,30H41V31H40zM41,30H42V31H41zM44,30H45V31H44zM45,30H46V31H45zM46,30H47V31H46zM47,30H48V31H47zM6,31H7V32H6zM7,31H8V32H7zM11,31H12V32H11zM12,31H13V32H12zM17,31H18V32H17zM22,31H23V32H22zM23,31H24V32H23zM25,31H26V32H25zM27,31H28V32H27zM28,31H29V32H28zM32,31H33V32H32zM33,31H34V32H33zM35,31H36V32H35zM36,31H37V32H36zM38,31H39V32H38zM39,31H40V32H39zM41,31H42V32H41zM42,31H43V32H42zM43,31H44V32H43zM45,31H46V32H45zM46,31H47V32H46zM47,31H48V32H47zM48,31H49V32H48zM4,32H5V33H4zM5,32H6V33H5zM8,32H9V33H8zM9,32H10V33H9zM10,32H11V33H10zM14,32H15V33H14zM16,32H17V33H16zM17,32H18V33H17zM19,32H20V33H19zM21,32H22V33H21zM22,32H23V33H22zM24,32H25V33H24zM27,32H28V33H27zM29,32H30V33H29zM30,32H31V33H30zM31,32H32V33H31zM35,32H36V33H35zM38,32H39V33H38zM42,32H43V33H42zM44,32H45V33H44zM4,33H5V34H4zM5,33H6V34H5zM6,33H7V34H6zM7,33H8V34H7zM16,33H17V34H16zM19,33H20V34H19zM20,33H21V34H20zM22,33H23V34H22zM25,33H26V34H25zM26,33H27V34H26zM27,33H28V34H27zM31,33H32V34H31zM32,33H33V34H32zM34,33H35V34H34zM35,33H36V34H35zM36,33H37V34H36zM42,33H43V34H42zM45,33H46V34H45zM47,33H48V34H47zM48,33H49V34H48zM7,34H8V35H7zM8,34H9V35H8zM10,34H11V35H10zM11,34H12V35H11zM14,34H15V35H14zM17,34H18V35H17zM19,34H20V35H19zM24,34H25V35H24zM28,34H29V35H28zM30,34H31V35H30zM32,34H33V35H32zM33,34H34V35H33zM35,34H36V35H35zM36,34H37V35H36zM37,34H38V35H37zM38,34H39V35H38zM40,34H41V35H40zM43,34H44V35H43zM45,34H46V35H45zM47,34H48V35H47zM5,35H6V36H5zM6,35H7V36H6zM11,35H12V36H11zM15,35H16V36H15zM20,35H21V36H20zM25,35H26V36H25zM26,35H27V36H26zM28,35H29V36H28zM30,35H31V36H30zM31,35H32V36H31zM32,35H33V36H32zM33,35H34V36H33zM34,35H35V36H34zM36,35H37V36H36zM38,35H39V36H38zM39,35H40V36H39zM40,35H41V36H40zM42,35H43V36H42zM43,35H44V36H43zM45,35H46V36H45zM46,35H47V36H46zM47,35H48V36H47zM4,36H5V37H4zM5,36H6V37H5zM9,36H10V37H9zM10,36H11V37H10zM11,36H12V37H11zM12,36H13V37H12zM15,36H16V37H15zM16,36H17V37H16zM17,36H18V37H17zM20,36H21V37H20zM22,36H23V37H22zM24,36H25V37H24zM29,36H30V37H29zM34,36H35V37H34zM35,36H36V37H35zM38,36H39V37H38zM41,36H42V37H41zM42,36H43V37H42zM44,36H45V37H44zM45,36H46V37H45zM47,36H48V37H47zM4,37H5V38H4zM7,37H8V38H7zM12,37H13V38H12zM14,37H15V38H14zM16,37H17V38H16zM17,37H18V38H17zM20,37H21V38H20zM22,37H23V38H22zM24,37H25V38H24zM25,37H26V38H25zM26,37H27V38H26zM27,37H28V38H27zM28,37H29V38H28zM32,37H33V38H32zM34,37H35V38H34zM36,37H37V38H36zM39,37H40V38H39zM42,37H43V38H42zM45,37H46V38H45zM46,37H47V38H46zM48,37H49V38H48zM8,38H9V39H8zM10,38H11V39H10zM12,38H13V39H12zM14,38H15V39H14zM15,38H16V39H15zM16,38H17V39H16zM18,38H19V39H18zM19,38H20V39H19zM24,38H25V39H24zM26,38H27V39H26zM27,38H28V39H27zM28,38H29V39H28zM29,38H30V39H29zM30,38H31V39H30zM31,38H32V39H31zM35,38H36V39H35zM36,38H37V39H36zM37,38H38V39H37zM38,38H39V39H38zM40,38H41V39H40zM41,38H42V39H41zM46,38H47V39H46zM47,38H48V39H47zM5,39H6V40H5zM6,39H7V40H6zM7,39H8V40H7zM8,39H9V40H8zM11,39H12V40H11zM13,39H14V40H13zM15,39H16V40H15zM16,39H17V40H16zM17,39H18V40H17zM18,39H19V40H18zM22,39H23V40H22zM23,39H24V40H23zM24,39H25V40H24zM25,39H26V40H25zM26,39H27V40H26zM27,39H28V40H27zM28,39H29V40H28zM29,39H30V40H29zM32,39H33V40H32zM33,39H34V40H33zM35,39H36V40H35zM36,39H37V40H36zM39,39H40V40H39zM40,39H41V40H40zM42,39H43V40H42zM43,39H44V40H43zM45,39H46V40H45zM46,39H47V40H46zM47,39H48V40H47zM4,40H5V41H4zM7,40H8V41H7zM8,40H9V41H8zM10,40H11V41H10zM12,40H13V41H12zM13,40H14V41H13zM14,40H15V41H14zM16,40H17V41H16zM18,40H19V41H18zM20,40H21V41H20zM22,40H23V41H22zM23,40H24V41H23zM24,40H25V41H24zM25,40H26V41H25zM26,40H27V41H26zM27,40H28V41H27zM28,40H29V41H28zM33,40H34V41H33zM35,40H36V41H35zM37,40H38V41H37zM40,40H41V41H40zM41,40H42V41H41zM42,40H43V41H42zM43,40H44V41H43zM44,40H45V41H44zM47,40H48V41H47zM12,41H13V42H12zM14,41H15V42H14zM15,41H16V42H15zM17,41H18V42H17zM18,41H19V42H18zM19,41H20V42H19zM21,41H22V42H21zM22,41H23V42H22zM24,41H25V42H24zM28,41H29V42H28zM29,41H30V42H29zM33,41H34V42H33zM34,41H35V42H34zM35,41H36V42H35zM36,41H37V42H36zM39,41H40V42H39zM40,41H41V42H40zM44,41H45V42H44zM45,41H46V42H45zM46,41H47V42H46zM48,41H49V42H48zM4,42H5V43H4zM5,42H6V43H5zM6,42H7V43H6zM7,42H8V43H7zM8,42H9V43H8zM9,42H10V43H9zM10,42H11V43H10zM13,42H14V43H13zM14,42H15V43H14zM17,42H18V43H17zM18,42H19V43H18zM20,42H21V43H20zM21,42H22V43H21zM23,42H24V43H23zM24,42H25V43H24zM26,42H27V43H26zM28,42H29V43H28zM30,42H31V43H30zM33,42H34V43H33zM35,42H36V43H35zM36,42H37V43H36zM39,42H40V43H39zM40,42H41V43H40zM42,42H43V43H42zM44,42H45V43H44zM46,42H47V43H46zM4,43H5V44H4zM10,43H11V44H10zM12,43H13V44H12zM13,43H14V44H13zM14,43H15V44H14zM15,43H16V44H15zM18,43H19V44H18zM20,43H21V44H20zM22,43H23V44H22zM24,43H25V44H24zM28,43H29V44H28zM32,43H33V44H32zM34,43H35V44H34zM35,43H36V44H35zM36,43H37V44H36zM39,43H40V44H39zM40,43H41V44H40zM44,43H45V44H44zM45,43H46V44H45zM46,43H47V44H46zM48,43H49V44H48zM4,44H5V45H4zM6,44H7V45H6zM7,44H8V45H7zM8,44H9V45H8zM10,44H11V45H10zM12,44H13V45H12zM13,44H14V45H13zM14,44H15V45H14zM15,44H16V45H15zM16,44H17V45H16zM17,44H18V45H17zM20,44H21V45H20zM21,44H22V45H21zM24,44H25V45H24zM25,44H26V45H25zM26,44H27V45H26zM27,44H28V45H27zM28,44H29V45H28zM29,44H30V45H29zM30,44H31V45H30zM33,44H34V45H33zM35,44H36V45H35zM38,44H39V45H38zM39,44H40V45H39zM40,44H41V45H40zM41,44H42V45H41zM42,44H43V45H42zM43,44H44V45H43zM44,44H45V45H44zM45,44H46V45H45zM4,45H5V46H4zM6,45H7V46H6zM7,45H8V46H7zM8,45H9V46H8zM10,45H11V46H10zM12,45H13V46H12zM16,45H17V46H16zM21,45H22V46H21zM23,45H24V46H23zM26,45H27V46H26zM28,45H29V46H28zM29,45H30V46H29zM31,45H32V46H31zM32,45H33V46H32zM33,45H34V46H33zM34,45H35V46H34zM36,45H37V46H36zM43,45H44V46H43zM44,45H45V46H44zM45,45H46V46H45zM47,45H48V46H47zM48,45H49V46H48zM4,46H5V47H4zM6,46H7V47H6zM7,46H8V47H7zM8,46H9V47H8zM10,46H11V47H10zM12,46H13V47H12zM13,46H14V47H13zM14,46H15V47H14zM16,46H17V47H16zM17,46H18V47H17zM19,46H20V47H19zM20,46H21V47H20zM25,46H26V47H25zM28,46H29V47H28zM30,46H31V47H30zM32,46H33V47H32zM33,46H34V47H33zM35,46H36V47H35zM36,46H37V47H36zM37,46H38V47H37zM38,46H39V47H38zM39,46H40V47H39zM40,46H41V47H40zM41,46H42V47H41zM42,46H43V47H42zM45,46H46V47H45zM46,46H47V47H46zM47,46H48V47H47zM4,47H5V48H4zM10,47H11V48H10zM13,47H14V48H13zM16,47H17V48H16zM17,47H18V48H17zM18,47H19V48H18zM20,47H21V48H20zM21,47H22V48H21zM24,47H25V48H24zM29,47H30V48H29zM30,47H31V48H30zM31,47H32V48H31zM32,47H33V48H32zM34,47H35V48H34zM36,47H37V48H36zM38,47H39V48H38zM39,47H40V48H39zM41,47H42V48H41zM44,47H45V48H44zM45,47H46V48H45zM46,47H47V48H46zM4,48H5V49H4zM5,48H6V49H5zM6,48H7V49H6zM7,48H8V49H7zM8,48H9V49H8zM9,48H10V49H9zM10,48H11V49H10zM12,48H13V49H12zM13,48H14V49H13zM16,48H17V49H16zM17,48H18V49H17zM23,48H24V49H23zM27,48H28V49H27zM28,48H29V49H28zM29,48H30V49H29zM30,48H31V49H30zM31,48H32V49H31zM33,48H34V49H33zM34,48H35V49H34zM40,48H41V49H40zM41,48H42V49H41zM42,48H43V49H42zM43,48H44V49H43zM45,48H46V49H45zM47,48H48V49H47z" id="qr-path" fill="#000000" fill-opacity="1" fill-rule="nonzero" stroke="none" /></svg>