<?xml version='1.0' encoding='UTF-8'?>
<svg width="41mm" height="41mm" version="1.1" viewBox="0 0 41 41" xmlns="http://www.w3.org/2000/svg"><path d="M4,4H5V5H4zM5,4H6V5H5zM6,4H7V5H6zM7,4H8V5H7zM8,4H9V5H8zM9,4H10V5H9zM10,4H11V5H10zM12,4H13V5H12zM13,4H14V5H13zM16,4H17V5H16zM17,4H18V5H17zM22,4H23V5H22zM24,4H25V5H24zM26,4H27V5H26zM30,4H31V5H30zM31,4H32V5H31zM32,4H33V5H32zM33,4H34V5H33zM34,4H35V5H34zM35,4H36V5H35zM36,4H37V5H36zM4,5H5V6H4zM10,5H11V6H10zM12,5H13V6H12zM16,5H17V6H16zM17,5H18V6H17zM18,5H19V6H18zM20,5H21V6H20zM21,5H22V6H21zM23,5H24V6H23zM24,5H25V6H24zM25,5H26V6H25zM26,5H27V6H26zM30,5H31V6H30zM36,5H37V6H36zM4,6H5V7H4zM6,6H7V7H6zM7,6H8V7H7zM8,6H9V7H8zM10,6H11V7H10zM12,6H13V7H12zM13,6H14V7H13zM14,6H15V7H14zM17,6H18V7H17zM18,6H19V7H18zM19,6H20V7H19zM22,6H23V7H22zM23,6H24V7H23zM24,6H25V7H24zM25,6H26V7H25zM26,6H27V7H26zM30,6H31V7H30zM32,6H33V7H32zM33,6H34V7H33zM34,6H35V7H34zM36,6H37V7H36zM4,7H5V8H4zM6,7H7V8H6zM7,7H8V8H7zM8,7H9V8H8zM10,7H11V8H10zM13,7H14V8H13zM16,7H17V8H16zM18,7H19V8H18zM19,7H20V8H19zM20,7H21V8H20zM21,7H22V8H21zM24,7H25V8H24zM25,7H26V8H25zM27,7H28V8H27zM28,7H29V8H28zM30,7H31V8H30zM32,7H33V8H32zM33,7H34V8H33zM34,7H35V8H34zM36,7H37V8H36zM4,8H5V9H4zM6,8H7V9H6zM7,8H8V9H7zM8,8H9V9H8zM10,8H11V9H10zM12,8H13V9H12zM13,8H14V9H13zM15,8H16V9H15zM19,8H20V9H19zM20,8H21V9H20zM22,8H23V9H22zM23,8H24V9H23zM30,8H31V9H30zM32,8H33V9H32zM33,8H34V9H33zM34,8H35V9H34zM36,8H37V9H36zM4,9H5V10H4zM10,9H11V10H10zM13,9H14V10H13zM15,9H16V10H15zM16,9H17V10H16zM18,9H19V10H18zM19,9H20V10H19zM20,9H21V10H20zM24,9H25V10H24zM26,9H27V10H26zM27,9H28V10H27zM30,9H31V10H30zM36,9H37V10H36zM4,10H5V11H4zM5,10H6V11H5zM6,10H7V11H6zM7,10H8V11H7zM8,10H9V11H8zM9,10H10V11H9zM10,10H11V11H10zM12,10H13V11H12zM14,10H15V11H14zM16,10H17V11H16zM18,10H19V11H18zM20,10H21V11H20zM22,10H23V11H22zM24,10H25V11H24zM26,10H27V11H26zM28,10H29V11H28zM30,10H31V11H30zM31,10H32V11H31zM32,10H33V11H32zM33,10H34V11H33zM34,10H35V11H34zM35,10H36V11H35zM36,10H37V11H36zM14,11H15V12H14zM15,11H16V12H15zM16,11H17V12H16zM17,11H18V12H17zM19,11H20V12H19zM20,11H21V12H20zM22,11H23V12H22zM23,11H24V12H23zM24,11H25V12H24zM26,11H27V12H26zM27,11H28V12H27zM4,12H5V13H4zM7,12H8V13H7zM8,12H9V13H8zM9,12H10V13H9zM10,12H11V13H10zM11,12H12V13H11zM12,12H13V13H12zM14,12H15V13H14zM15,12H16V13H15zM16,12H17V13H16zM18,12H19V13H18zM20,12H21V13H20zM21,12H22V13H21zM24,12H25V13H24zM28,12H29V13H28zM29,12H30V13H29zM32,12H33V13H32zM34,12H35V13H34zM35,12H36V13H35zM36,12H37V13H36zM7,13H8V14H7zM8,13H9V14H8zM9,13H10V14H9zM16,13H17V14H16zM17,13H18V14H17zM19,13H20V14H19zM20,13H21V14H20zM22,13H23V14H22zM23,13H24V14H23zM25,13H26V14H25zM26,13H27V14H26zM27,13H28V14H27zM32,13H33V14H32zM33,13H34V14H33zM34,13H35V14H34zM6,14H7V15H6zM9,14H10V15H9zM10,14H11V15H10zM11,14H12V15H11zM12,14H13V15H12zM13,14H14V15H13zM14,14H15V15H14zM16,14H17V15H16zM17,14H18V15H17zM19,14H20V15H19zM21,14H22V15H21zM24,14H25V15H24zM25,14H26V15H25zM26,14H27V15H26zM27,14H28V15H27zM28,14H29V15H28zM30,14H31V15H30zM32,14H33V15H32zM33,14H34V15H33zM34,14H35V15H34zM35,14H36V15H35zM36,14H37V15H36zM5,15H6V16H5zM6,15H7V16H6zM8,15H9V16H8zM11,15H12V16H11zM15,15H16V16H15zM16,15H17V16H16zM17,15H18V16H17zM19,15H20V16H19zM21,15H22V16H21zM22,15H23V16H22zM23,15H24V16H23zM24,15H25V16H24zM26,15H27V16H26zM30,15H31V16H30zM31,15H32V16H31zM34,15H35V16H34zM35,15H36V16H35zM36,15H37V16H36zM4,16H5V17H4zM5,16H6V17H5zM6,16H7V17H6zM7,16H8V17H7zM10,16H11V17H10zM11,16H12V17H11zM12,16H13V17H12zM13,16H14V17H13zM15,16H16V17H15zM16,16H17V17H16zM17,16H18V17H17zM20,16H21V17H20zM23,16H24V17H23zM24,16H25V17H24zM30,16H31V17H30zM35,16H36V17H35zM36,16H37V17H36zM5,17H6V18H5zM7,17H8V18H7zM8,17H9V18H8zM9,17H10V18H9zM11,17H12V18H11zM12,17H13V18H12zM13,17H14V18H13zM18,17H19V18H18zM22,17H23V18H22zM27,17H28V18H27zM29,17H30V18H29zM31,17H32V18H31zM33,17H34V18H33zM4,18H5V19H4zM5,18H6V19H5zM6,18H7V19H6zM8,18H9V19H8zM9,18H10V19H9zM10,18H11V19H10zM12,18H13V19H12zM13,18H14V19H13zM18,18H19V19H18zM19,18H20V19H19zM21,18H22V19H21zM22,18H23V19H22zM23,18H24V19H23zM24,18H25V19H24zM26,18H27V19H26zM30,18H31V19H30zM32,18H33V19H32zM33,18H34V19H33zM6,19H7V20H6zM7,19H8V20H7zM8,19H9V20H8zM16,19H17V20H16zM17,19H18V20H17zM18,19H19V20H18zM20,19H21V20H20zM23,19H24V20H23zM27,19H28V20H27zM29,19H30V20H29zM32,19H33V20H32zM33,19H34V20H33zM34,19H35V20H34zM36,19H37V20H36zM4,20H5V21H4zM6,20H7V21H6zM8,20H9V21H8zM9,20H10V21H9zM10,20H11V21H10zM11,20H12V21H11zM12,20H13V21H12zM15,20H16V21H15zM16,20H17V21H16zM17,20H18V21H17zM18,20H19V21H18zM19,20H20V21H19zM24,20H25V21H24zM26,20H27V21H26zM28,20H29V21H28zM29,20H30V21H29zM30,20H31V21H30zM31,20H32V21H31zM32,20H33V21H32zM33,20H34V21H33zM5,21H6V22H5zM7,21H8V22H7zM9,21H10V22H9zM11,21H12V22H11zM12,21H13V22H12zM13,21H14V22H13zM18,21H19V22H18zM19,21H20V22H19zM22,21H23V22H22zM23,21H24V22H23zM24,21H25V22H24zM25,21H26V22H25zM28,21H29V22H28zM29,21H30V22H29zM30,21H31V22H30zM32,21H33V22H32zM34,21H35V22H34zM35,21H36V22H35zM36,21H37V22H36zM4,22H5V23H4zM9,22H10V23H9zM10,22H11V23H10zM11,22H12V23H11zM12,22H13V23H12zM15,22H16V23H15zM16,22H17V23H16zM19,22H20V23H19zM23,22H24V23H23zM27,22H28V23H27zM30,22H31V23H30zM31,22H32V23H31zM33,22H34V23H33zM34,22H35V23H34zM36,22H37V23H36zM5,23H6V24H5zM6,23H7V24H6zM7,23H8V24H7zM8,23H9V24H8zM9,23H10V24H9zM13,23H14V24H13zM14,23H15V24H14zM15,23H16V24H15zM20,23H21V24H20zM26,23H27V24H26zM27,23H28V24H27zM30,23H31V24H30zM32,23H33V24H32zM33,23H34V24H33zM34,23H35V24H34zM5,24H6V25H5zM6,24H7V25H6zM10,24H11V25H10zM12,24H13V25H12zM13,24H14V25H13zM16,24H17V25H16zM17,24H18V25H17zM19,24H20V25H19zM21,24H22V25H21zM24,24H25V25H24zM28,24H29V25H28zM29,24H30V25H29zM31,24H32V25H31zM33,24H34V25H33zM36,24H37V25H36zM4,25H5V26H4zM5,25H6V26H5zM6,25H7V26H6zM9,25H10V26H9zM14,25H15V26H14zM16,25H17V26H16zM18,25H19V26H18zM19,25H20V26H19zM20,25H21V26H20zM21,25H22V26H21zM23,25H24V26H23zM26,25H27V26H26zM27,25H28V26H27zM31,25H32V26H31zM32,25H33V26H32zM33,25H34V26H33zM34,25H35V26H34zM4,26H5V27H4zM8,26H9V27H8zM9,26H10V27H9zM10,26H11V27H10zM11,26H12V27H11zM12,26H13V27H12zM14,26H15V27H14zM15,26H16V27H15zM19,26H20V27H19zM20,26H21V27H20zM27,26H28V27H27zM28,26H29V27H28zM29,26H30V27H29zM30,26H31V27H30zM32,26H33V27H32zM33,26H34V27H33zM35,26H36V27H35zM36,26H37V27H36zM4,27H5V28H4zM6,27H7V28H6zM8,27H9V28H8zM14,27H15V28H14zM15,27H16V28H15zM16,27H17V28H16zM18,27H19V28H18zM20,27H21V28H20zM21,27H22V28H21zM23,27H24V28H23zM24,27H25V28H24zM26,27H27V28H26zM27,27H28V28H27zM29,27H30V28H29zM30,27H31V28H30zM31,27H32V28H31zM32,27H33V28H32zM34,27H35V28H34zM35,27H36V28H35zM36,27H37V28H36zM4,28H5V29H4zM5,28H6V29H5zM7,28H8V29H7zM10,28H11V29H10zM12,28H13V29H12zM15,28H16V29H15zM18,28H19V29H18zM19,28H20V29H19zM20,28H21V29H20zM24,28H25V29H24zM27,28H28V29H27zM28,28H29V29H28zM29,28H30V29H29zM30,28H31V29H30zM31,28H32V29H31zM32,28H33V29H32zM35,28H36V29H35zM12,29H13V30H12zM13,29H14V30H13zM15,29H16V30H15zM16,29H17V30H16zM17,29H18V30H17zM19,29H20V30H19zM20,29H21V30H20zM22,29H23V30H22zM27,29H28V30H27zM28,29H29V30H28zM32,29H33V30H32zM34,29H35V30H34zM35,29H36V30H35zM4,30H5V31H4zM5,30H6V31H5zM6,30H7V31H6zM7,30H8V31H7zM8,30H9V31H8zM9,30H10V31H9zM10,30H11V31H10zM12,30H13V31H12zM13,30H14V31H13zM14,30H15V31H14zM15,30H16V31H15zM17,30H18V31H17zM19,30H20V31H19zM21,30H22V31H21zM23,30H24V31H23zM24,30H25V31H24zM25,30H26V31H25zM26,30H27V31H26zM27,30H28V31H27zM28,30H29V31H28zM30,30H31V31H30zM32,30H33V31H32zM34,30H35V31H34zM35,30H36V31H35zM4,31H5V32H4zM10,31H11V32H10zM12,31H13V32H12zM13,31H14V32H13zM15,31H16V32H15zM16,31H17V32H16zM17,31H18V32H17zM19,31H20V32H19zM23,31H24V32H23zM24,31H25V32H24zM27,31H28V32H27zM28,31H29V32H28zM32,31H33V32H32zM33,31H34V32H33zM34,31H35V32H34zM35,31H36V32H35zM4,32H5V33H4zM6,32H7V33H6zM7,32H8V33H7zM8,32H9V33H8zM10,32H11V33H10zM12,32H13V33H12zM13,32H14V33H13zM17,32H18V33H17zM18,32H19V33H18zM20,32H21V33H20zM24,32H25V33H24zM26,32H27V33H26zM27,32H28V33H27zM28,32H29V33H28zM29,32H30V33H29zM30,32H31V33H30zM31,32H32V33H31zM32,32H33V33H32zM36,32H37V33H36zM4,33H5V34H4zM6,33H7V34H6zM7,33H8V34H7zM8,33H9V34H8zM10,33H11V34H10zM12,33H13V34H12zM13,33H14V34H13zM14,33H15V34H14zM15,33H16V34H15zM17,33H18V34H17zM18,33H19V34H18zM19,33H20V34H19zM20,33H21V34H20zM23,33H24V34H23zM25,33H26V34H25zM26,33H27V34H26zM29,33H30V34H29zM31,33H32V34H31zM34,33H35V34H34zM35,33H36V34H35zM36,33H37V34H36zM4,34H5V35H4zM6,34H7V35H6zM7,34H8V35H7zM8,34H9V35H8zM10,34H11V35H10zM14,34H15V35H14zM16,34H17V35H16zM17,34H18V35H17zM18,34H19V35H18zM19,34H20V35H19zM21,34H22V35H21zM23,34H24V35H23zM24,34H25V35H24zM28,34H29V35H28zM31,34H32V35H31zM32,34H33V35H32zM33,34H34V35H33zM34,34H35V35H34zM35,34H36V35H35zM36,34H37V35H36zM4,35H5V36H4zM10,35H11V36H10zM14,35H15V36H14zM15,35H16V36H15zM16,35H17V36H16zM17,35H18V36H17zM18,35H19V36H18zM19,35H20V36H19zM23,35H24V36H23zM26,35H27V36H26zM31,35H32V36H31zM32,35H33V36H32zM33,35H34V36H33zM34,35H35V36H34zM35,35H36V36H35zM36,35H37V36H36zM4,36H5V37H4zM5,36H6V37H5zM6,36H7V37H6zM7,36H8V37H7zM8,36H9V37H8zM9,36H10V37H9zM10,36H11V37H10zM12,36H13V37H12zM19,36H20V37H19zM20,36H21V37H20zM21,36H22V37H21zM22,36H23V37H22zM23,36H24V37H23zM24,36H25V37H24zM27,36H28V37H27zM28,36H29V37H28zM31,36H32V37H31zM32,36H33V37H32zM33,36H34V37H33z" id="qr-path" fill="#000000" fill-opacity="1" fill-rule="nonzero" stroke="none" /></svg>