<svg xmlns="http://www.w3.org/2000/svg" width="960" height="560" viewBox="0 0 960 560" role="img" aria-labelledby="title desc">
  <title id="title">Airflow direction</title>
  <desc id="desc">Airflow direction showing bottom and side cool intake with top radiator warm exhaust.</desc>
  <style>
    .case{fill:#f8fafc;stroke:#0f172a;stroke-width:4}.cool{stroke:#2563eb;stroke-width:9;marker-end:url(#blue)}.warm{stroke:#dc2626;stroke-width:9;marker-end:url(#red)}.mix{stroke:#64748b;stroke-width:5;marker-end:url(#gray)}
    text{font-family:Arial,sans-serif;fill:#0f172a;font-size:20px}.small{font-size:16px}
  </style>
  <defs>
    <marker id="blue" markerWidth="10" markerHeight="10" refX="9" refY="3" orient="auto"><path d="M0,0 L0,6 L9,3 z" fill="#2563eb"/></marker>
    <marker id="red" markerWidth="10" markerHeight="10" refX="9" refY="3" orient="auto"><path d="M0,0 L0,6 L9,3 z" fill="#dc2626"/></marker>
    <marker id="gray" markerWidth="10" markerHeight="10" refX="9" refY="3" orient="auto"><path d="M0,0 L0,6 L9,3 z" fill="#64748b"/></marker>
  </defs>
  <rect class="case" x="180" y="90" width="590" height="350" rx="12"/>
  <line class="cool" x1="300" y1="515" x2="300" y2="435"/><line class="cool" x1="430" y1="515" x2="430" y2="435"/><line class="cool" x1="560" y1="515" x2="560" y2="435"/>
  <line class="cool" x1="900" y1="210" x2="770" y2="210"/><line class="cool" x1="900" y1="320" x2="770" y2="320"/>
  <line class="mix" x1="320" y1="380" x2="460" y2="250"/><line class="mix" x1="700" y1="260" x2="520" y2="215"/>
  <line class="warm" x1="480" y1="90" x2="480" y2="25"/>
  <text x="70" y="70">Bottom and side intake feed GPU, motherboard, and radiator.</text>
  <text x="575" y="70">Top radiator exhaust removes warm air.</text>
  <text class="small" x="245" y="475">Bottom intake</text>
  <text class="small" x="790" y="185">Side intake</text>
  <text class="small" x="505" y="38">Top exhaust</text>
</svg>
