<svg xmlns="http://www.w3.org/2000/svg" width="960" height="620" viewBox="0 0 960 620" role="img" aria-labelledby="title desc">
  <title id="title">Fan layout</title>
  <desc id="desc">Fan layout showing bottom and side intake fans with top radiator exhaust.</desc>
  <style>
    .case{fill:#f8fafc;stroke:#0f172a;stroke-width:4}
    .fan{fill:#dbeafe;stroke:#1d4ed8;stroke-width:3}
    .rad{fill:#fee2e2;stroke:#b91c1c;stroke-width:3}
    .arrowIn{stroke:#2563eb;stroke-width:6;marker-end:url(#arrow)}
    .arrowOut{stroke:#dc2626;stroke-width:6;marker-end:url(#arrowRed)}
    text{font-family:Arial,sans-serif;fill:#0f172a;font-size:20px}
    .small{font-size:16px}
  </style>
  <defs>
    <marker id="arrow" markerWidth="10" markerHeight="10" refX="9" refY="3" orient="auto"><path d="M0,0 L0,6 L9,3 z" fill="#2563eb"/></marker>
    <marker id="arrowRed" markerWidth="10" markerHeight="10" refX="9" refY="3" orient="auto"><path d="M0,0 L0,6 L9,3 z" fill="#dc2626"/></marker>
  </defs>
  <rect width="960" height="620" fill="#f8fafc"/>
  <text x="40" y="45" class="title">Fan Layout</text>
  <rect class="case" x="150" y="95" width="650" height="405" rx="12"/>
  <rect class="rad" x="290" y="125" width="380" height="55" rx="6"/>
  <text x="350" y="160">Top 360mm radiator exhaust</text>
  <circle class="fan" cx="280" cy="460" r="42"/><circle class="fan" cx="390" cy="460" r="42"/><circle class="fan" cx="500" cy="460" r="42"/>
  <text class="small" x="170" y="555">Bottom intake</text>
  <circle class="fan" cx="710" cy="245" r="42"/><circle class="fan" cx="710" cy="355" r="42"/>
  <text class="small" x="625" y="205">Side intake</text>
  <line class="arrowIn" x1="280" y1="595" x2="280" y2="512"/><line class="arrowIn" x1="390" y1="595" x2="390" y2="512"/><line class="arrowIn" x1="500" y1="595" x2="500" y2="512"/>
  <line class="arrowIn" x1="885" y1="245" x2="760" y2="245"/><line class="arrowIn" x1="885" y1="355" x2="760" y2="355"/>
  <line class="arrowOut" x1="480" y1="125" x2="480" y2="65"/>
</svg>
